<svg clip-rule="evenodd" fill-rule="evenodd" height="6.9413in" image-rendering="optimizeQuality" shape-rendering="geometricPrecision" text-rendering="geometricPrecision" viewBox="0 0 1880 1715" width="7.60718in" xmlns="http://www.w3.org/2000/svg"><path d="m931 1615c474 0 858 22 858 50s-384 50-858 50-858-22-858-50 384-50 858-50z" fill="#f3f4f4"/><path d="m25 17c-13 0-24 11-24 24v1202c0 13 11 24 24 24h855c13 0 24-11 24-24v-1202c0-13-11-24-24-24zm855 1251h-855c-14 0-25-11-25-25v-1202c0-13 11-25 25-25h855c14 0 25 12 25 26v1201c0 14-11 25-25 25z" fill="#e8e7e8"/><path d="m983 17c-14 0-25 11-25 24v1202c0 13 11 24 25 24h854c13 0 24-11 24-24v-1202c0-13-11-24-24-24zm854 1251h-854c-14 0-26-11-26-25v-1202c0-13 12-25 26-25h854c14 0 25 12 25 25v1202c0 14-11 25-25 25z" fill="#e8e7e8"/><path d="m744 630-6 521c-21 173-328 310-328 310s-307-137-328-310l-7-521 328-108z" fill="#f3f4f4"/><path d="m701 663-5 467c-19 151-286 271-286 271s-268-120-286-271l-6-467 286-94z" fill="#e0e2e2"/><path d="m674 839c0 3 3 6 7 6s7-2 7-6-3-7-7-7-7 3-7 7zm-1 146c0 3 2 6 6 6 4 1 7-2 7-6s-3-7-7-7c-3 0-6 3-6 7zm-3 144c-1 4 1 8 5 8 3 1 7-1 8-5 0-4-2-7-6-8-3 0-7 2-7 5zm-76 118c-3 2-3 7 0 9 2 3 7 3 9 1 3-3 3-7 0-10-2-2-6-3-9 0zm-117 85c-3 2-4 6-2 9s6 4 9 2c3-1 4-5 2-9-2-3-6-4-9-2zm-123 7c-3-1-7 0-9 3s-1 7 2 9c4 2 8 1 10-3 1-3 0-7-3-9zm-119-82c-3-3-7-2-9 0-3 3-2 7 0 10 3 2 7 2 10-1 2-3 2-7-1-9zm-83-114c-1-3-5-5-8-4-4 1-6 4-4 8 1 4 4 5 8 4 3-1 5-4 4-8zm-6-143c0-4-3-7-7-7-3 0-6 3-6 7 0 3 3 6 6 6 4 0 7-3 7-6zm-2-146c0-4-3-7-7-7-3 0-6 3-6 7 0 3 3 6 7 6 3 0 6-3 6-6zm-2-147c0-3-3-6-6-6-4 0-7 3-7 7 0 3 3 6 7 6s6-3 6-7zm120-49c4-1 6-5 5-8-2-4-5-6-9-5-3 2-5 5-4 9 1 3 5 5 8 4zm139-46c4-1 5-5 4-8-1-4-5-5-8-4-4 1-5 5-4 8 1 4 5 5 8 4zm135 41c4 1 7 0 9-4 1-3-1-7-5-8-3-1-7 1-8 4-1 4 1 7 4 8zm139 44c4 2 8 0 9-4 1-3-1-7-5-8-3-1-7 1-8 4-1 4 1 7 4 8zm1-4c0 3 3 6 7 6 3 0 6-3 6-6 0-4-3-7-6-7-4 0-7 3-7 7z" fill="#fefefe"/><path d="m1774 1491h-591v-1036h591z" fill="#f3f4f4"/><path d="m1731 1491h-504v-996h504z" fill="#e0e2e2"/><path d="m1241 1495c-1 0-2 0-3-1 0 0-1 0-2-1 0-1-1-1-1-2-1-1-1-2-1-3s1-3 2-4c2-2 4-3 6-2h1l2 1 1 1v1c1 0 1 0 1 1v1s1 1 1 1c0 1-1 2-1 3s-1 1-1 2c-2 1-3 2-5 2z" fill="#fefefe"/><path d="m1234 673c0-3 3-6 7-6s7 3 7 6c0 4-3 7-7 7s-7-3-7-7zm0 163c0-3 3-6 7-6s7 3 7 6c0 4-3 7-7 7s-7-3-7-7zm0 163c0-3 3-6 7-6s7 3 7 6c0 4-3 7-7 7s-7-3-7-7zm0 163c0-3 3-6 7-6s7 3 7 6c0 4-3 7-7 7s-7-3-7-7zm0 163c0-3 3-6 7-6s7 3 7 6c0 4-3 7-7 7s-7-3-7-7z" fill="#fefefe"/><path d="m1241 517c-2 0-4-1-5-2 0 0 0-1-1-1 0-1 0-1 0-1 0-1-1-1-1-2 0 0 0 0 0-1 0-2 1-3 2-5h1l1-1h2c0-1 1-1 2 0h1l2 1h1c1 2 2 3 2 5 0 1-1 1-1 1v2s0 0-1 1v1c-2 1-3 2-5 2z" fill="#fefefe"/><path d="m1392 510c0-4 3-6 7-6s7 2 7 6-3 7-7 7-7-3-7-7zm158 0c0-4 3-6 7-6s7 2 7 6-3 7-7 7-7-3-7-7z" fill="#fefefe"/><path d="m1715 517c-1 0-1 0-1 0-1 0-1-1-2-1h-1l-1-1c-1-1-2-3-2-5s1-3 2-5h1l1-1h2c0-1 1-1 2 0h1l2 1h1c1 2 2 3 2 5s-1 4-2 5l-1 1h-2s0 1-1 1z" fill="#fefefe"/><path d="m1708 673c0-3 3-6 7-6s7 3 7 6c0 4-3 7-7 7s-7-3-7-7zm0 163c0-3 3-6 7-6s7 3 7 6c0 4-3 7-7 7s-7-3-7-7zm0 163c0-3 3-6 7-6s7 3 7 6c0 4-3 7-7 7s-7-3-7-7zm0 163c0-3 3-6 7-6s7 3 7 6c0 4-3 7-7 7s-7-3-7-7zm0 163c0-3 3-6 7-6s7 3 7 6c0 4-3 7-7 7s-7-3-7-7z" fill="#fefefe"/><path d="m1715 1495c-2 0-4-1-5-2s-2-3-2-5c0-1 1-3 2-4l1-1 1-1h2 2 1l2 1 1 1c1 1 2 3 2 4 0 2-1 4-2 5-2 1-3 2-5 2z" fill="#fefefe"/><path d="m63 1492h182v1h-182z" fill="#e0e2e2"/><path d="m434 1483h183v2h-183z" fill="#e0e2e2"/><path d="m811 1483h44v2h-44z" fill="#e0e2e2"/><path d="m208 1521h205v1h-205z" fill="#e0e2e2"/><path d="m1025 1492h96v1h-96z" fill="#e0e2e2"/><path d="m1160 1492h124v1h-124z" fill="#e0e2e2"/><path d="m1603 1510h277v1h-277z" fill="#e0e2e2"/><path d="m858 144h-204l11-127h204z" fill="#ededeb"/><path d="m862 0-6 66-5 80h-196l11-146z" fill="#f9fcfe"/><path d="m843 17 11 127h-204l-11-127h18l6-9h55l7 9z" fill="#e0e2e2"/><path d="m1174 390h-217v-217h217z" fill="#ededeb"/><path d="m1174 173h5v217h-5z" fill="#e0e2e2"/><path d="m1154 370h-177v-177h177z" fill="#f3f4f4"/><path d="m978 370h-1v-177h1z" fill="#e0e2e2"/><path d="m1032 263c0 24 16 44 35 44s34-20 34-44-15-44-34-44-35 20-35 44z" fill="#e0e2e2"/><path d="m1049 329h36v-36h-36z" fill="#e0e2e2"/><path d="m999 370h133v-13c0-23-19-42-42-42h-48c-24 0-43 19-43 42z" fill="#e0e2e2"/><path d="m996 296c0 7 13 13 13 13s13-6 13-13c0-4-5-6-8-5s-5 5-5 5-3-4-6-5c-4-1-7 1-7 5z" fill="#e0e2e2"/><path d="m1114 264c0 9 17 17 17 17s17-8 17-17c0-5-6-7-10-6-5 1-7 6-7 6s-4-5-9-7c-4-1-8 2-8 7z" fill="#e0e2e2"/><g fill="#f3f4f4"><path d="m735 1347c2 12 11 24 12 36 1 11-4 20-6 30-3 10-2 22 7 27 6 4 14 3 20-1s10-9 14-15c14-22 21-48 21-73 1-11-1-23-7-31-20-28-66-5-61 27z"/><path d="m719 1313c2 2 4 3 7 4s7 1 10-2c2-2 2-6 2-9 0-4-2-8-4-12-2-3-6-5-10-5-5 1-8 4-9 8 0 4 1 12 4 16z"/><path d="m756 1286c-3-3-6-4-9-4-3 1-6 4-6 7-1 1-1 2-1 4 0 1 1 3 1 5s1 3 2 4c2 2 4 3 6 3 2 1 5 0 7-2s3-5 2-8c0-3-1-6-2-9z"/><path d="m776 1285c-2-3-5-4-8-3-2 1-5 4-5 7 0 1-1 2-1 3s0 3 1 5c0 1 1 3 2 4s3 1 5 1c2 1 4 0 6-2 1-1 2-4 2-7 0-2 0-5-2-8z"/><path d="m794 1289c-2-3-4-3-7-2-2 2-4 4-4 7 0 1-1 2-1 2v5c1 1 2 3 3 3 1 1 2 1 3 1 2 0 4-1 5-2l3-6c0-3 0-5-2-8z"/><path d="m798 1307v4c0 1 1 2 2 2 1 1 3-1 5-2 1-1 2-3 2-5 1-1 1-3 0-5-4-6-8 3-9 6z"/><path d="m801 1642c3-10 5-22 1-32-12-31-62-21-66 11z"/><path d="m729 1584 6 6c3 2 7 2 10 0 3-1 4-5 5-8 0-4 0-8-1-12-2-4-5-7-9-8-4 0-9 2-10 6s-3 12-1 16z"/><path d="m772 1568c-2-4-4-6-8-6-3 0-6 2-8 5 0 1 0 2-1 3v5c0 2 0 4 1 5 1 2 2 3 4 4 3 1 6 2 8 0 2-1 3-4 4-7s1-6 0-9z"/><path d="m792 1572c-2-4-4-5-7-5s-6 2-7 5c0 1-1 2-1 3-1 1-1 3-1 4 0 2 0 4 1 5s3 2 4 3c2 1 5 1 6 0 3-2 4-4 5-7 1-2 1-5 0-8z"/><path d="m808 1581c-1-4-3-5-6-4-2 1-5 3-6 5 0 1-1 2-1 2-1 2-1 3-1 5 0 1 0 3 1 4 1 0 2 1 4 1 1 1 3 0 4-1 2-1 4-3 5-5s1-5 0-7z"/><path d="m807 1599c0 1-1 2-1 3s1 2 1 3c2 1 4 0 6-1 1-1 3-2 4-4 1-1 1-3 0-5-2-7-8 1-10 4z"/><path d="m627 1454c2 13-4 26-1 39 2 10 9 18 14 27 5 8 7 21 0 28-4 5-12 6-19 4s-13-6-18-11c-19-17-33-39-41-64-3-10-5-22-1-32 12-32 62-23 66 9z"/><path d="m633 1417c-1 3-3 5-5 6-3 2-7 3-10 1-3-1-5-5-5-8-1-4-1-8 1-12 1-4 4-7 8-8s9 1 10 5c2 4 3 12 1 16z"/><path d="m591 1402c1-4 4-6 7-6s7 2 8 5c0 1 1 2 1 3s1 3 1 5 0 4-1 5c-1 2-3 3-5 4s-5 2-7 0c-3-1-4-4-5-6 0-3 0-7 1-10z"/><path d="m571 1407c1-4 3-6 6-5 3 0 6 2 7 5 1 0 1 1 2 2 0 2 0 3 1 5 0 2-1 3-2 4 0 2-2 3-3 3-2 1-5 1-7 0s-3-3-4-6-1-6 0-8z"/><path d="m554 1416c1-4 4-5 6-4 3 0 5 3 7 5 0 1 0 2 1 2 0 2 1 3 1 4 0 2 0 3-1 4s-2 2-4 2c-1 1-3 0-4-1-3-1-4-3-5-5s-1-5-1-7z"/><path d="m556 1434c0 1 1 2 1 3s0 2-1 3c-2 1-4 0-6-1-1-1-3-2-4-3 0-2-1-4 0-6 2-7 8 1 10 4z"/></g><path d="m508 316c-13 2-23 14-21 28 2 13 14 22 28 21 13-2 22-15 20-28s-14-23-27-21zm10 76c-28 4-54-16-58-44-4-29 16-55 44-59s55 16 59 44c4 29-16 55-45 59z" fill="#e0e2e2"/><path d="m516 311-19 3-18-126 20-3z" fill="#e0e2e2"/><path d="m518 189-37 5-3-20 37-5z" fill="#e0e2e2"/><path d="m521 214-34 5-3-20 35-5z" fill="#e0e2e2"/><path d="m526 249-30 4-3-19 31-4z" fill="#e0e2e2"/><path d="m505 752c5 62-40 112-102 112s-116-50-121-112c-6-61 40-111 101-111 62 0 116 50 122 111z" fill="#4b7abc"/><path d="m403 864c-62 0-116-50-121-112-1-3-1-6-1-9 0-57 44-102 102-102 10 0 20 1 29 4 49 12 88 56 93 107v10c0 35-16 65-41 83-17 12-38 19-61 19z" fill="#d7e4f4"/><path d="m341 682c-1 0-3 0-3-1-2-2-1-5 1-7 14-10 31-15 51-15 2 0 4 2 4 4s-2 4-4 4c-18 0-34 5-46 15-1 0-2 0-3 0z" fill="#403b58"/><path d="m362 835c-1 0-1 0-2-1-27-14-47-41-53-71-5-28 1-56 18-76 2-2 4-2 6 0 2 1 2 4 1 6-15 18-21 43-16 68 6 28 23 52 48 65 2 2 3 4 2 6s-2 3-4 3z" fill="#403b58"/><path d="m406 846c-9 0-19-1-29-4-2-1-3-4-3-6 1-2 4-4 6-3 27 9 54 4 75-13 20-18 30-45 25-74 0-2 1-4 4-5 2 0 4 1 5 4 5 31-6 62-29 81-15 14-34 20-54 20z" fill="#403b58"/><path d="m481 735c-2 0-4-1-4-3-9-25-28-47-52-57-2-1-3-4-2-6s4-3 6-2c26 11 47 35 56 62 1 3 0 5-3 6z" fill="#403b58"/><path d="m411 670h-1c-7-2-13-3-20-3-3 0-5-2-5-4s2-4 5-4c7 0 15 0 22 2 2 1 4 3 3 5 0 3-2 4-4 4z" fill="#403b58"/><path d="m333 776c-2 0-3-1-4-3-8-23-6-47 8-66 12-18 33-28 55-28 3 0 4 2 4 4 0 3-1 5-4 5-20 0-37 9-48 24-12 17-14 38-7 58 1 2 0 5-2 5-1 1-1 1-2 1z" fill="#403b58"/><path d="m403 826c-26 0-52-15-66-37-1-2-1-5 1-6 2-2 5-1 6 1 13 20 36 33 59 33 3 0 5 2 5 5 0 2-2 4-5 4z" fill="#403b58"/><path d="m420 824c-2 0-4-1-5-3 0-2 1-5 4-5 36-9 45-41 42-65-4-31-29-63-69-63-2 0-4-2-4-5 0-2 2-4 4-4 45 0 73 36 78 71 4 37-15 66-49 74z" fill="#403b58"/><path d="m374 712c-2 0-3-1-4-3s0-4 2-5c7-3 14-5 22-5 2 0 4 2 4 4 0 3-2 5-4 5-7 0-13 1-18 4-1 0-1 0-2 0z" fill="#403b58"/><path d="m402 806c-22 0-42-14-52-35-9-20-7-41 7-56 2-2 4-2 6-1 2 2 2 5 0 7-11 12-13 29-5 46 8 19 27 30 46 30 15-1 28-9 35-23 7-16 3-34-9-49-1-1-1-4 1-6 2-1 5-1 6 1 14 16 18 39 10 57-8 17-24 28-43 29 0 0-1 0-2 0z" fill="#403b58"/><path d="m421 716c-1 0-2 0-2-1-8-5-17-7-25-7-3 0-5-2-5-5 0-2 2-4 5-4 10 0 20 3 29 9 3 1 3 4 2 6-1 1-2 2-4 2z" fill="#403b58"/><path d="m400 786c-10 0-20-5-27-13-9-11-11-24-5-36 5-11 15-18 28-18 2 0 4 2 4 5 0 2-2 4-4 4-9 0-16 5-20 12-4 9-3 19 4 27s17 11 26 9 15-8 16-16c1-3 3-4 6-4 2 1 3 3 3 6-3 11-11 20-22 23-3 0-6 1-9 1z" fill="#403b58"/><path d="m426 751c-2 0-4-2-4-4-4-11-15-19-26-19-3 0-5-2-5-4 0-3 2-5 5-5 15 0 29 11 34 26 1 2-1 5-3 5 0 0-1 1-1 1z" fill="#403b58"/><path d="m401 767c-2 0-4-2-4-4 0-3 2-5 4-5 4 0 5-3 5-4 0-3-2-7-7-7-1 0-2 1-3 2s-1 2-1 3c0 3-2 5-4 5-3 0-5-2-5-4 0-4 1-8 3-10 3-3 6-5 10-5 10 0 16 8 16 16 0 7-6 13-14 13z" fill="#403b58"/><path d="m515 752c6 62-40 112-102 112-1 0-3 0-4 0 58-3 101-52 96-112-5-59-57-108-116-111h5c62 0 116 50 121 111z" fill="#4b7abc"/><path d="m413 864c-1 0-3 0-4 0 55-3 96-47 96-102 0-3 0-6 0-10-5-59-57-108-116-111h5c62 0 116 50 121 111 1 4 1 7 1 10 0 57-44 102-103 102z" fill="#8ab0dd"/><path d="m605 208c1 2 1 3 1 4 2 9 6 17 13 22 7 7 16 11 26 11h374c19 0 34-14 34-33 0-1 0-2 0-4-1-10-6-19-13-25-7-7-17-11-27-11h-374c-20 0-35 16-34 36z" fill="#4b7abc"/><path d="m1019 245h-41-1-72-1-259c-10 0-19-4-26-11-7-5-11-13-13-22 0-1 0-2-1-4 0-1 0-2 0-3 0-16 11-29 26-32-6 1-12 4-16 8h398c10 0 20 4 27 10 7 7 12 15 13 25 0-1 0-2 0-4 0 0 0 0 0-1v1c0 5-1 8-2 12-3 7-8 12-14 16-5 3-11 5-18 5zm28-53c-2-4-4-7-7-9-2-2-5-4-7-6 2 2 5 4 7 6 3 2 5 5 7 9z" fill="#d7e4f4"/><path d="m1053 212v4c-1-10-6-18-13-25-7-6-17-10-27-10h-398c6-6 15-9 24-9h374c10 0 20 4 27 11 7 6 12 15 13 25z" fill="#4b7abc"/><path d="m1053 216c-1-10-6-18-13-25-7-6-17-10-27-10h-398c6-6 15-9 24-9h374c10 0 20 4 27 11 7 6 12 15 13 25v3 1z" fill="#9fbce2"/><path d="m989 190 1 17 17-6 4 9-17 6 12 15-8 5-12-15-9 15-8-5 9-15-17-6 2-9 18 6-2-17z" fill="#403b58"/><path d="m886 190 2 17 16-6 4 9-17 6 13 15-8 5-12-15-9 15-8-5 9-15-18-6 3-9 18 6-2-17z" fill="#403b58"/><path d="m784 190 2 17 16-6 4 9-17 6 12 15-7 5-12-15-9 15-9-5 10-15-18-6 2-9 18 6-1-17z" fill="#403b58"/><path d="m682 190 1 17 17-6 4 9-17 6 12 15-8 5-11-15-9 15-9-5 10-15-18-6 2-9 18 6-2-17z" fill="#403b58"/><path d="m930 159h-18v-5h18z" fill="#403b58"/><path d="m1005 159h-57v-5h57z" fill="#403b58"/><path d="m1573 455h-192l12-135c1-14 13-25 26-25h144c13 0 22 10 22 22v3z" fill="#dfe9f6"/><path d="m1570 495h-193l4-40h192z" fill="#dfe9f6"/><path d="m1541 551h-144c-5 0-10-2-14-5-5-4-9-10-9-17 0-1 1-2 1-2l2-32h193l-3 32c0 6-3 11-7 16-5 5-12 8-19 8zm16-47c-4 0-7 2-7 6s3 7 7 7 7-3 7-7-3-6-7-6zm-158 0c-4 0-7 2-7 6s3 7 7 7 7-3 7-7-3-6-7-6z" fill="#dfe9f6"/><path d="m1557 517c-4 0-7-3-7-7s3-6 7-6 7 2 7 6-3 7-7 7zm-158 0c-4 0-7-3-7-7s3-6 7-6 7 2 7 6-3 7-7 7z" fill="#dfe9f6"/><path d="m1406 353c-3 0-5-2-4-5l1-19c0-2 2-4 5-4h20c2 0 4 2 4 5 0 2-2 4-4 4h-16l-2 15c0 2-2 4-4 4z" fill="#403b58"/><path d="m1567 353h-1c-2 0-4-2-4-5l2-14h-15c-3 0-5-2-5-4 0-3 2-5 5-5h20c1 0 2 1 3 2 1 0 1 2 1 3l-2 19c0 2-2 4-4 4z" fill="#403b58"/><path d="m1413 496h-20c-1 0-2-1-3-2s-1-2-1-3l2-19c0-2 2-4 5-4 2 0 4 2 4 5l-2 14h15c3 0 5 2 5 4 0 3-2 5-5 5z" fill="#403b58"/><path d="m1554 496h-20c-2 0-4-2-4-5 0-2 2-4 4-4h16l2-15c0-2 2-4 4-4 3 0 5 2 4 5l-1 19c0 2-2 4-5 4z" fill="#403b58"/><path d="m1542 410c-4 39-33 71-66 71-32 0-56-32-52-71 3-40 32-72 65-72 32 0 56 32 53 72z" fill="#fefefe"/><path d="m1500 520h-57l5-57h57z" fill="#fefefe"/><path d="m1567 527c0 6-3 11-7 16-5 5-12 8-19 8h-144c-5 0-10-2-14-5-6-4-9-11-8-19 0 0 66-21 74-21h51z" fill="#fefefe"/><path d="m1591 462-4-1 6-81h5z" fill="#403b58"/><path d="m1601 359h-4l1-16h5z" fill="#403b58"/><path d="m1444 841h-17v-4h17z" fill="#4b7abc"/><path d="m1519 841h-57v-4h57z" fill="#4b7abc"/><path d="m1623 761-11 126c-1 12-11 21-22 21-12 0-20-9-19-21l11-126c3-41-27-74-68-74h-45c-40 0-76 33-80 74l-5 52h-41l5-52c5-63 61-115 125-115h45c63 0 111 52 105 115z" fill="#4b7abc"/><path d="m1590 908c-11 0-19-8-19-19 0-1 0-1 0-2l11-126c0-2 0-4 0-6 0-38-29-68-68-68h-45c-40 0-76 33-80 74l-5 52h-41l5-52c5-63 61-115 125-115h45c60 0 106 46 106 105 0 3-1 7-1 10l-11 126c-1 12-11 21-22 21z" fill="#9fbce2"/><path d="m1626 883-21 245c-2 16-16 29-31 29h-246c-15 0-27-13-26-29l22-245c1-10 7-19 15-24 5-3 10-5 16-5h245c6 0 11 2 15 4 7 5 12 14 11 25z" fill="#403b58"/><path d="m1370 990 64 98 211-210c2-2-1-5-3-3l-201 157-37-61z" fill="#fefefe"/><path d="m364 515h-159c-16 0-29-13-30-28l-14-160c-1-15 10-27 25-27h160c15 0 28 12 29 27l14 160c2 15-10 28-25 28z" fill="#4b7abc"/><path d="m364 515h-159c-16 0-29-13-30-28l-14-160s0-1 0-2c0-14 11-25 25-25h160c15 0 28 12 29 27l8 89c-10-10-38-37-66-55 1-5 5-28 6-33 0-1-1-3-2-3 0 0 0 0-1 0s-2 1-2 2c0 5-4 24-5 32-13-8-26-14-37-15l-3-33c0-2-1-3-2-3 0 0 0 1-1 1s-2 1-2 2l3 33c-11 0-22 6-34 13-1-5-4-14-9-27-1-3-2-5-2-5-1-1-1-2-2-2s-1 0-1 0c-1 1-2 2-2 3 1 1 1 3 3 6 2 7 9 25 9 28-31 22-58 60-60 62l4 3s0 0 0-1c34 17 68 22 98 22 3 0 5 1 8 1s7-1 10-2c47-3 81-18 90-22h1l5 64v3c0 14-10 25-25 25z" fill="#d7e4f4"/><path d="m175 424s57-80 99-78 111 76 111 76-102 53-210 2z" fill="#fefefe"/><path d="m177 425-4-3c3-3 57-78 99-78h2c42 2 110 73 113 76l-3 3c-1-1-70-72-110-74-1 0-1 0-2 0-40 0-95 75-95 76z" fill="#313f44"/><path d="m169 426c-8 0-20-3-24-15 0-1 1-2 2-3 1 0 2 0 3 2 5 15 24 12 25 11 1 0 2 1 2 2s0 2-2 3c-1 0-3 0-6 0z" fill="#313f44"/><path d="m203 392c-1 0-1 0-1 0-1-1-17-13-21-25 0-1 0-3 2-3 1 0 2 0 2 1 4 12 19 23 19 23 1 1 1 2 1 3-1 1-1 1-2 1z" fill="#313f44"/><path d="m235 362c-1 0-2-1-2-2 0-3-7-21-9-28-2-3-2-5-3-6 0-1 1-2 2-3 1 0 2 1 3 2 0 0 1 2 2 5 6 16 10 27 10 30 0 1-1 2-3 2z" fill="#313f44"/><path d="m274 349c-1 0-2-1-2-2l-4-36c0-1 1-2 2-2 2-1 3 0 3 2l3 35c0 1-1 2-2 3z" fill="#313f44"/><path d="m392 424c-4 0-6-1-7-1s-2-1-1-2c0-1 1-2 2-2 0 0 11 2 18-3 3-2 4-4 5-8 0-2 1-2 2-2s2 1 2 2c-1 5-3 9-7 12s-10 4-14 4z" fill="#313f44"/><path d="m352 390c-1 0-1 0-2-1 0-1 0-2 1-3 0 0 13-12 14-23 1-1 2-2 3-1 1 0 2 1 2 2-2 13-16 25-16 25-1 1-1 1-2 1z" fill="#313f44"/><path d="m315 364h-1c-1 0-2-1-2-2 1-1 5-29 6-35 0-1 2-2 3-2s2 2 2 3c-1 6-6 34-6 34 0 1-1 2-2 2z" fill="#313f44"/><path d="m328 397c3 27-18 50-45 50-28 0-53-23-55-50-2-28 18-51 46-51 27 0 52 23 54 51z" fill="#4b7abc"/><path d="m328 397c-1-13-6-24-14-32 8 8 13 20 14 32z" fill="#b4b6b5"/><path d="m314 365c-9-11-23-18-38-19 15 1 29 8 38 19z" fill="#2d3336"/><path d="m232 373c2-5 5-9 8-12-3 3-6 7-8 12z" fill="#b4b6b5"/><path d="m240 361c8-9 19-14 32-15-13 1-24 6-32 15z" fill="#2d3336"/><path d="m272 346h2 2c-1 0-1 0-2 0s-2 0-2 0z" fill="#2d3336"/><path d="m328 397h-29c0-1 0-1 0-2s0-1 0-2-1-3-1-4c8-1 13-8 12-17 0-9-9-17-18-17-10 0-17 7-16 17-11 0-20 8-20 19v2c0 1 1 2 1 4h-29c-1-9 1-17 4-24 2-5 5-9 8-12 8-9 19-14 32-15h2 2c15 1 29 8 38 19 8 8 13 20 14 32z" fill="#403b58"/><path d="m279 414c-10 0-20-7-22-17 0-2-1-3-1-4 0 0 0-1 0-2 0-11 9-19 20-19 1 10 9 18 19 18 1 0 2-1 3-1 0 1 1 3 1 4v2 2c-1 10-9 17-20 17z" fill="#2e3655"/><path d="m298 389c-3-10-12-17-22-17-1-10 6-17 16-17 9 0 18 8 18 17 1 9-4 16-12 17z" fill="#beceea"/><path d="m295 390c-10 0-18-8-19-18 10 0 19 7 22 17-1 0-2 1-3 1z" fill="#b9c1cc"/><path d="m242 285h-18v-5h18z" fill="#403b58"/><path d="m317 285h-57v-5h57z" fill="#403b58"/><path d="m1046 605 2 1 2 3 4 4c3 4 7 7 10 10 7 6 14 12 21 17 7 6 15 11 23 16 5 2 8 5 12 7l10 6h4c4-1 21-19 27-25 13-15 32-34 42-50l12 16c-8 20-17 39-29 56-6 9-14 18-23 25-5 5-11 8-17 11-8 3-17 4-25 2-2-1-4-2-6-2l-4-2-8-3c-4-3-9-5-14-8-9-5-18-10-27-16s-17-13-25-20c-5-3-8-7-12-11-2-2-4-4-6-6l-3-4c-1-1-1-2-3-4z" fill="#fab27a"/><path d="m1201 597 21-44 19 35s-12 22-26 22z" fill="#fab27a"/><path d="m1245 535 21 26-25 27-19-35z" fill="#fab27a"/><path d="m1238 600h32c2 0 4-1 4-3l7-78c0-3-2-4-4-4h-32c-2 0-4 1-4 3l-7 78c0 2 2 4 4 4z" fill="#4b7abc"/><path d="m1271 592h-33l6-70h33z" fill="#789fd3"/><path d="m1236 582 6-3c3-1 5-3 8-5l1-4c-1-2-4-3-6-3l-5 2-24 1-1 11 7 10h3c5 1 10-3 11-9z" fill="#fab27a"/><path d="m1004 562c17-3 134 98 134 98l-35 51s-128-89-124-111 1-34 25-38z" fill="#313f44"/><path d="m1079 695s-25-19-44-34v-1c15 12 31 24 43 33z" fill="#cecece"/><path d="m1078 693c-12-9-28-21-43-33 4-15 4-27 0-39z" fill="#2e373b"/><path d="m926 1617 40 3 12-91-39-3z" fill="#fab27a"/><path d="m540 1082-10 39 85 36 17-39z" fill="#fab27a"/><path d="m1001 1620c1 0 1 1 2 1v1c0 1 0 2-1 3-2 2-9 2-18 0 6-2 11-4 17-5zm-7 8c3 1 7 0 9-2 2-1 2-3 2-4s0-2-1-3c-5-3-21 5-23 6v1 1c4 1 9 1 13 1z" fill="#4b7abc"/><path d="m991 1611h1c2 0 2 1 2 1 0 3-6 9-11 12 0-5 2-9 5-12 1-1 2-1 3-1zm-9 16c5-2 14-11 14-15-1-1-1-3-4-3-2 0-4 0-5 1-5 4-6 15-6 15v1z" fill="#4b7abc"/><path d="m964 1605-36 1c-1 0-3 1-3 3l-8 49c-1 4 2 7 6 7 16-1 23-2 43-3 12 0 49 4 65 1 16-4 13-20 6-20-23 0-49-15-62-32-2-1-9-7-11-6z" fill="#313f44"/><path d="m548 1126 18-31c1-1 1-3-1-4l-37-34c-2-2-7-1-9 1v1c-8 13-11 20-21 37-6 10-30 39-35 55-6 15 9 22 13 16 12-20 39-34 60-35 3-1 11-4 12-6z" fill="#313f44"/><path d="m933 1571 3-25z" fill="#cecece"/><path d="m972 1576-40-3 1-2 3-25 40 2z" fill="#e09460"/><path d="m604 1153-18-8zm15-40-19-7z" fill="#b6b6b7"/><path d="m604 1153-18-8 14-39 19 7z" fill="#e09460"/><path d="m1030 609c22 38-5 70-28 184h-148c2-61 2-111-24-232-3-11 4-22 15-24h4c13 0 28 0 44 2 24 2 49 5 73 11 20 5 25 7 38 12 8 2 17 23 26 47z" fill="#313f44"/><path d="m1007 801s83 240 81 355c-1 66-6 190-26 276-16 71-83 116-83 116l-53-3s-29-108-24-151c10-85 40-149 36-228-5-129-43-367-43-367z" fill="#403b58"/><path d="m916 1559 75 5 6-23-83-8z" fill="#313f44"/><path d="m927 1271 3-22c0-1 1-2 2-3-2 8-3 17-5 25z" fill="#cecece"/><path d="m925 1286 2-15c2-8 3-17 5-25 41-45 53-138 54-228l11 111c8 90-22 157-67 157-1 0-3 0-4-1z" fill="#403b58"/><path d="m970 799s66 422-71 470c-73 27-134-3-206-35-42-18-94-68-94-68l20-55s48-15 111-5c70 11 73 31 98 16 53-130-38-233 24-324z" fill="#403b58"/><path d="m623 1101-27 71 20 15 32-84z" fill="#313f44"/><path d="m612 719c-7 10-41 3-41 3l-7-42 42 17z" fill="#fab27a"/><path d="m573 678 6 44-25 4c-3 0-5-2-6-5l-9-31c-1-1 0-3 2-3z" fill="#fab27a"/><path d="m561 698 15 3 13-11-5-3c-4-3-6-7-7-11s-2-9-2-13v-2c0-2-2-5-5-5l-4 3c-2 4 0 10-1 14v7l-6 3z" fill="#fab27a"/><path d="m837 553-84 115-154 30v26s145 10 177-8c33-19 87-134 87-134z" fill="#fab27a"/><path d="m836 332c-35-12-76 10-92 43s-11 74 7 107c6 10 12 19 17 29 4 10 7 22 3 33-4 10-7 17-21 15 0 0 0-7 5-6 0 0-10 6-14 2 5 7 17 5 22-3 6-12-6-28-19-28s-24 14-24 27c1 13 11 25 23 31-7 1-15-3-18-10 6 16 26 23 42 20 17-3 31-14 44-25 17-14 36-33 35-55 0-17-11-32-20-46-10-14-18-32-12-48 5-13 18-21 30-30 9-6 26-19 24-31s-22-22-32-25z" fill="#313f44"/><path d="m757 726-24-62 6 1c9 0 17-4 21-12 18-31 64-111 77-115 18-6 37 9 44 31 5 16-49 84-74 123-22 35-50 34-50 34z" fill="#313f44"/><path d="m537 1132c1 6 1 14-1 16h-1c-1 0-2-1-3-2-1-3 1-8 5-13zm-7 14c1 2 3 3 4 4 1 0 3 0 3-1 4-3 2-18 2-19l-1-1-1 1c-3 4-8 11-7 16z" fill="#4b7abc"/><path d="m549 1140v3c-1 1-1 1-2 1-3-1-7-8-8-12 3 2 9 5 10 8zm-12-8c1 5 6 13 10 14 1 0 3-1 3-2 1-1 1-3 1-4-2-6-13-10-13-11h-1v1z" fill="#4b7abc"/><path d="m853 786-4 14c0 1 1 2 3 2h152c2 0 3 0 3-1l2-15c0-1-2-2-3-2l-150 1c-1 0-2 0-3 1z" fill="#4b7abc"/><path d="m852 802c-2 0-3 0-3-1v-1l4-14c1-1 2-1 3-1l150-1c1 0 3 1 3 2l-2 15s-1 1-2 1h-1z" fill="#9fbce2"/><path d="m882 804h-4c-1 0-2-1-2-1l2-19s1-1 2-1h5s1 1 1 1l-2 19s-1 1-2 1z" fill="#403b58"/><path d="m993 804h-5c-1 0-1-1-1-1l2-19s0-1 1-1h5c1 0 1 1 1 1l-2 19s-1 1-1 1z" fill="#403b58"/><path d="m942 804h-4c-1 0-2-1-2-1l2-19c0-1 1-1 2-1h4c1 0 2 0 2 1l-2 19s-1 1-2 1z" fill="#403b58"/><path d="m900 458c4 24 9 68-7 81 0 0 6 25 50 31 48 7 23-20 23-20-26-11-26-30-21-47z" fill="#fab27a"/><path d="m893 539c24 2 45 4 69 9l33 10c6 12-4 36-31 41 0 0-70 10-91-62z" fill="#fab27a"/><path d="m942 515s1-1 1-2c0 1 0 2-1 2z" fill="#cecece"/><path d="m942 515c-10-2-26-14-27-24 0-5 1-10 3-15l27 27c-1 3-2 6-2 10 0 1-1 2-1 2z" fill="#e09460"/><path d="m870 428c12 37 16 53 40 68 37 22 80-1 80-41-1-36-20-91-61-97-29-4-57 16-61 45-1 8-1 17 2 25z" fill="#fab27a"/><path d="m959 422c5 6 10 12 16 18-3 2-7 4-11 4z" fill="#f68d4a"/><path d="m955 464c2 0 3-1 5-1v-1c0-1 0-1-1-1-8 2-16 1-22-4h-2l1 1c5 4 12 7 19 6z" fill="#313f44"/><path d="m857 353c-10 6-16 17-16 29 0 2 0 4 1 6s2 4 5 4 6-3 7-6c3-4 6-8 9-13 3-4 7-9 9-14 3-9-10-10-15-6z" fill="#4b7abc"/><path d="m861 362c-23 27-34 102 35 123 12-9-7-26-15-47-5-13 21-39 32-50 10-10 19-25 34-23 3 1 7 2 11 0 11-5 6-12 0-16-8-7-20-11-31-12-24-2-50 6-66 25z" fill="#313f44"/><path d="m938 353c27 23-9 23-28 38-19 14-6 37-37 47-26 8-32 3-39-2 0 0 29-3 33-36 3-17 39-74 71-47z" fill="#313f44"/><path d="m866 459c4 6 11 11 18 12 10 2 14-7 11-16-4-8-13-19-22-16-7 1-11 8-9 15 0 2 1 4 2 5z" fill="#fab27a"/><path d="m933 355c5 13 21 12 32 26 7 9 21-19 2-29-18-11-42-18-34 3z" fill="#313f44"/><path d="m917 412c1 0 1 0 2-1 3-8 14-10 14-10 1 0 2-1 2-2s-1-2-2-1c-1 0-13 2-18 12 0 1 0 2 1 2z" fill="#313f44"/><path d="m974 396c1 0 2 0 2-1 1-1 0-2-1-2-5-4-11-5-17-2 0 0-1 1-1 2 1 1 2 1 3 1 4-2 9-1 13 2z" fill="#313f44"/><path d="m1156 638-26 15-27 58s26 17 47 3c20-13 6-76 6-76z" fill="#4b7abc"/><path d="m1132 719c-15 0-29-8-29-8l27-58 26-15s5 21 5 42c0 14-2 29-11 34-6 4-12 5-18 5z" fill="#9fbce2"/><path d="m703 656 30 9 30 60s-24 22-49 1c-19-15-11-70-11-70z" fill="#4b7abc"/><path d="m737 735c-7 0-15-2-23-9-11-8-13-28-13-45 0-13 2-25 2-25l30 9 30 60s-11 10-26 10z" fill="#9fbce2"/><path d="m973 411c2 0 4 2 4 5 1 4 0 7-2 7-3 0-5-2-5-5-1-3 0-6 3-7z" fill="#313f44"/><path d="m979 408-7 4c4 3 7-4 7-4z" fill="#313f44"/><path d="m935 419c3-1 5 2 5 5 1 3 0 6-2 7-3 0-5-2-5-6-1-3 0-6 2-6z" fill="#313f44"/><path d="m942 415-7 4c4 3 7-4 7-4z" fill="#313f44"/><path d="m748 588c-4 0-8-1-12-2-14-6-20-20-17-39 0-2 1-2 2-2s2 1 2 2c-2 17 3 30 15 35s29 0 38-12c11-15 7-36-10-58-45-57-42-87-36-111 10-34 37-74 114-66 1 0 2 1 2 2s-1 2-3 2c-73-7-100 30-108 63-7 24-9 52 35 108 26 33 15 55 10 63-8 9-20 15-32 15z" fill="#313f44"/></svg>